HIERARCHY
ROOT Hips
{
  OFFSET 5.84602e-005 68.8428 3.50346
  CHANNELS 6 Xposition Yposition Zposition Zrotation Xrotation Yrotation
  JOINT Spine
  {
    OFFSET 0 8.597 -4.6522
    CHANNELS 3 Zrotation Xrotation Yrotation
    JOINT Spine1
    {
      OFFSET 0 7.8454 0.4098
      CHANNELS 3 Zrotation Xrotation Yrotation
      JOINT Spine2
      {
        OFFSET 0 9.7078 -2.1609
        CHANNELS 3 Zrotation Xrotation Yrotation
        JOINT Neck
        {
          OFFSET 0 21.8761 -0.4549
          CHANNELS 3 Zrotation Xrotation Yrotation
          JOINT Head
          {
            OFFSET 0 12.3537 3.3602
            CHANNELS 3 Zrotation Xrotation Yrotation
            End Site
            {
              OFFSET 0.0001 18.9506 0.5657
            }
          }
        }
        JOINT LeftShoulder
        {
          OFFSET 2.2086 21.1115 7.2329
          CHANNELS 3 Zrotation Xrotation Yrotation
          JOINT LeftArm
          {
            OFFSET 13.1193 3.0282 -4.8998
            CHANNELS 3 Zrotation Xrotation Yrotation
            JOINT LeftForeArm
            {
              OFFSET 27.4081 -0.0973053 -0.2375
              CHANNELS 3 Zrotation Xrotation Yrotation
              JOINT LeftHand
              {
                OFFSET 22.8641 0.0662994 -0.1369
                CHANNELS 3 Zrotation Xrotation Yrotation
                JOINT LeftHandIndex1
                {
                  OFFSET 8.8614 0.775009 2.4612
                  CHANNELS 3 Zrotation Xrotation Yrotation
                  JOINT LeftHandIndex2
                  {
                    OFFSET 3.3146 -0.808304 0.5841
                    CHANNELS 3 Zrotation Xrotation Yrotation
                    JOINT LeftHandIndex3
                    {
                      OFFSET 2.2628 -0.552002 0.3989
                      CHANNELS 3 Zrotation Xrotation Yrotation
                      End Site
                      {
                        OFFSET 1.6102 -0.4807 0.2612
                      }
                    }
                  }
                }
                JOINT LeftHandMiddle1
                {
                  OFFSET 8.9937 0.895004 0.2143
                  CHANNELS 3 Zrotation Xrotation Yrotation
                  JOINT LeftHandMiddle2
                  {
                    OFFSET 4.0984 0.0113983 -0.0242
                    CHANNELS 3 Zrotation Xrotation Yrotation
                    JOINT LeftHandMiddle3
                    {
                      OFFSET 2.2716 0.00689697 -0.0138001
                      CHANNELS 3 Zrotation Xrotation Yrotation
                      End Site
                      {
                        OFFSET 2.0404 -0.1441 0.0027
                      }
                    }
                  }
                }
                JOINT LeftHandRing1
                {
                  OFFSET 8.5234 0.597198 -2.0164
                  CHANNELS 3 Zrotation Xrotation Yrotation
                  JOINT LeftHandRing2
                  {
                    OFFSET 3.7188 -0.188293 -0.2328
                    CHANNELS 3 Zrotation Xrotation Yrotation
                    JOINT LeftHandRing3
                    {
                      OFFSET 2.1191 -0.106598 -0.1332
                      CHANNELS 3 Zrotation Xrotation Yrotation
                      End Site
                      {
                        OFFSET 1.8737 -0.2304 -0.0886
                      }
                    }
                  }
                }
                JOINT LeftHandPinky1
                {
                  OFFSET 7.9094 -0.601089 -3.4825
                  CHANNELS 3 Zrotation Xrotation Yrotation
                  JOINT LeftHandPinky2
                  {
                    OFFSET 2.2874 -0.477005 -0.6314
                    CHANNELS 3 Zrotation Xrotation Yrotation
                    JOINT LeftHandPinky3
                    {
                      OFFSET 1.6774 -0.349396 -0.4633
                      CHANNELS 3 Zrotation Xrotation Yrotation
                      End Site
                      {
                        OFFSET 1.4888 -0.4091 -0.3416
                      }
                    }
                  }
                }
                JOINT LeftHandThumb1
                {
                  OFFSET 1.833 -1.3875 1.3896
                  CHANNELS 3 Zrotation Xrotation Yrotation
                  JOINT LeftHandThumb2
                  {
                    OFFSET 3.4129 -1.121 2.5732
                    CHANNELS 3 Zrotation Xrotation Yrotation
                    JOINT LeftHandThumb3
                    {
                      OFFSET 2.2474 -0.804199 1.6192
                      CHANNELS 3 Zrotation Xrotation Yrotation
                      End Site
                      {
                        OFFSET 1.6527 -0.5689 1.1317
                      }
                    }
                  }
                }
              }
            }
          }
        }
        JOINT RightShoulder
        {
          OFFSET -2.2086 21.1115 7.2329
          CHANNELS 3 Zrotation Xrotation Yrotation
          JOINT RightArm
          {
            OFFSET -13.1216 3.0287 -4.9007
            CHANNELS 3 Zrotation Xrotation Yrotation
            JOINT RightForeArm
            {
              OFFSET -27.4081 -0.0973053 -0.2375
              CHANNELS 3 Zrotation Xrotation Yrotation
              JOINT RightHand
              {
                OFFSET -22.8641 0.0664063 -0.1369
                CHANNELS 3 Zrotation Xrotation Yrotation
                JOINT RightHandIndex1
                {
                  OFFSET -8.8614 0.774994 2.4612
                  CHANNELS 3 Zrotation Xrotation Yrotation
                  JOINT RightHandIndex2
                  {
                    OFFSET -3.3146 -0.808304 0.5841
                    CHANNELS 3 Zrotation Xrotation Yrotation
                    JOINT RightHandIndex3
                    {
                      OFFSET -2.2628 -0.552002 0.3989
                      CHANNELS 3 Zrotation Xrotation Yrotation
                      End Site
                      {
                        OFFSET -1.6102 -0.4807 0.2612
                      }
                    }
                  }
                }
                JOINT RightHandMiddle1
                {
                  OFFSET -8.9937 0.894989 0.2143
                  CHANNELS 3 Zrotation Xrotation Yrotation
                  JOINT RightHandMiddle2
                  {
                    OFFSET -4.0984 0.0113983 -0.0242
                    CHANNELS 3 Zrotation Xrotation Yrotation
                    JOINT RightHandMiddle3
                    {
                      OFFSET -2.2716 0.00691223 -0.0138001
                      CHANNELS 3 Zrotation Xrotation Yrotation
                      End Site
                      {
                        OFFSET -2.0404 -0.1441 0.0027
                      }
                    }
                  }
                }
                JOINT RightHandRing1
                {
                  OFFSET -8.5234 0.597198 -2.0164
                  CHANNELS 3 Zrotation Xrotation Yrotation
                  JOINT RightHandRing2
                  {
                    OFFSET -3.7188 -0.188309 -0.2328
                    CHANNELS 3 Zrotation Xrotation Yrotation
                    JOINT RightHandRing3
                    {
                      OFFSET -2.1191 -0.106598 -0.1332
                      CHANNELS 3 Zrotation Xrotation Yrotation
                      End Site
                      {
                        OFFSET -1.8737 -0.2304 -0.0886
                      }
                    }
                  }
                }
                JOINT RightHandPinky1
                {
                  OFFSET -7.9094 -0.601105 -3.4825
                  CHANNELS 3 Zrotation Xrotation Yrotation
                  JOINT RightHandPinky2
                  {
                    OFFSET -2.2874 -0.477005 -0.6314
                    CHANNELS 3 Zrotation Xrotation Yrotation
                    JOINT RightHandPinky3
                    {
                      OFFSET -1.6774 -0.349396 -0.4633
                      CHANNELS 3 Zrotation Xrotation Yrotation
                      End Site
                      {
                        OFFSET -1.4888 -0.4091 -0.3416
                      }
                    }
                  }
                }
                JOINT RightHandThumb1
                {
                  OFFSET -1.833 -1.38751 1.3896
                  CHANNELS 3 Zrotation Xrotation Yrotation
                  JOINT RightHandThumb2
                  {
                    OFFSET -3.41299 -1.12099 2.5732
                    CHANNELS 3 Zrotation Xrotation Yrotation
                    JOINT RightHandThumb3
                    {
                      OFFSET -2.24741 -0.804108 1.6192
                      CHANNELS 3 Zrotation Xrotation Yrotation
                      End Site
                      {
                        OFFSET -1.6527 -0.5689 1.1317
                      }
                    }
                  }
                }
              }
            }
          }
        }
      }
    }
  }
  JOINT RightUpLeg
  {
    OFFSET -9.1966 3.8861 -0.7581
    CHANNELS 3 Zrotation Xrotation Yrotation
    JOINT RightLeg
    {
      OFFSET -0.7359 -41.0265 0
      CHANNELS 3 Zrotation Xrotation Yrotation
      JOINT RightFoot
      {
        OFFSET 0 -40.2855 0
        CHANNELS 3 Zrotation Xrotation Yrotation
        JOINT RightToeBase
        {
          OFFSET 0 -5.6122 11.7359
          CHANNELS 3 Zrotation Xrotation Yrotation
          End Site
          {
            OFFSET 0 0 7.8731
          }
        }
      }
    }
  }
  JOINT LeftUpLeg
  {
    OFFSET 9.1965 3.8864 -0.7581
    CHANNELS 3 Zrotation Xrotation Yrotation
    JOINT LeftLeg
    {
      OFFSET 0.7359 -41.0268 0
      CHANNELS 3 Zrotation Xrotation Yrotation
      JOINT LeftFoot
      {
        OFFSET 0 -40.2855 0
        CHANNELS 3 Zrotation Xrotation Yrotation
        JOINT LeftToeBase
        {
          OFFSET 0 -5.6122 11.7359
          CHANNELS 3 Zrotation Xrotation Yrotation
          End Site
          {
            OFFSET 0 0 7.8731
          }
        }
      }
    }
  }
}
MOTION
Frames:	4
Frame Time:	0.0333333
-0.183189 1.85937 6.31279 -180 -89.9981 -180 -0.045922 8.40861 -0.0679569 -0.0829984 16.8175 -0.131171 -0.0829985 16.8175 -0.131171 5.86998e-007 17.9984 -1.19866e-006 -0.00233279 2.64832 14.9968 0.603947 0.432983 8.60715 -77.1298 0.631613 30.2922 27.5535 10.0184 -70.428 -7.08972 23.5991 0.217619 1.04822e-006 4.07631e-007 8.38571e-007 -9.93923e-016 -1.59028e-015 -0 -5.96354e-016 -4.91992e-015 -3.18055e-015 1.04822e-006 4.07631e-007 8.38571e-007 -0.0146124 -8.98857e-005 -1.0018e-006 -1.39149e-015 1.09332e-015 -4.77083e-015 1.04822e-006 4.07631e-007 8.38571e-007 -0.0187449 -0.00117338 5.15639e-005 -4.13804e-031 -4.96962e-015 -4.77083e-015 1.04822e-006 4.07631e-007 8.38571e-007 -0.0122446 -0.00323954 0.000666058 -5.96354e-016 -1.98785e-015 -4.77083e-015 1.04822e-006 4.07631e-007 8.38571e-007 -9.93923e-016 -1.59028e-015 -0 -5.96354e-016 -4.91992e-015 -3.18055e-015 -0.607421 0.433248 -8.61063 77.1126 0.634028 -30.2949 -27.6434 9.7427 71.0674 7.08676 23.5989 -0.220556 -3.97569e-016 -1.76421e-015 1.59028e-015 -4.96962e-016 -2.11209e-015 3.18055e-015 -3.97569e-016 -2.73329e-015 3.18055e-015 -3.97569e-016 -1.76421e-015 1.59028e-015 0.0149899 -9.04906e-005 -6.80216e-007 -1.12405e-006 3.68257e-007 -8.43699e-007 -3.97569e-016 -1.76421e-015 1.59028e-015 0.0189856 -0.00118888 -6.64444e-005 -1.1237e-006 3.68128e-007 -8.43707e-007 -3.97569e-016 -1.76421e-015 1.59028e-015 0.0122248 -0.00323972 -0.000673655 1.59028e-015 -3.03147e-015 4.77083e-015 -3.97569e-016 -1.76421e-015 1.59028e-015 -4.96962e-016 -2.11209e-015 3.18055e-015 -3.97569e-016 -2.73329e-015 3.18055e-015 -28.5921 -47.957 -35.7049 176.671 47.9945 177.565 -7.41694 13.6028 -3.37238 3.41546e-008 -4.19469e-007 7.00911e-008 16.3546 3.04432 1.06718 -1.99524 6.62717 0.847526 9.12123 13.3976 0.599949 -2.3154e-006 1.2067e-007 -4.71422e-007 
-0.183232 1.85939 6.3128 -180 -89.9981 -180 -0.045109 8.36083 -0.0666864 -0.0815842 16.7217 -0.128728 -0.0815842 16.7217 -0.128728 1.46387e-006 17.9988 -9.99374e-007 -0.00231897 2.42301 14.9968 0.603947 0.432999 8.60715 -77.1298 0.631639 30.2922 27.3546 10.0658 -70.1761 -7.08971 23.5991 0.217605 -2.55621e-007 -2.28505e-006 -1.18708e-007 -2.54067e-006 -2.02942e-006 6.09692e-007 -2.54067e-006 -2.02942e-006 6.09692e-007 -2.55621e-007 -2.28505e-006 -1.18708e-007 -0.0145903 -8.90718e-005 1.58071e-006 -2.54056e-006 -2.0295e-006 6.09436e-007 -2.55621e-007 -2.28505e-006 -1.18708e-007 -0.0187272 -0.00117537 5.39711e-005 -2.54052e-006 -2.02951e-006 6.09386e-007 -2.55621e-007 -2.28505e-006 -1.18708e-007 -0.0122487 -0.00324391 0.000667625 -2.54057e-006 -2.02945e-006 6.09542e-007 -2.55621e-007 -2.28505e-006 -1.18708e-007 -2.54067e-006 -2.02942e-006 6.09692e-007 -2.54067e-006 -2.02942e-006 6.09692e-007 -0.607419 0.43328 -8.61063 77.1126 0.634027 -30.2949 -27.4486 9.78172 70.839 7.08676 23.5989 -0.220576 1.27305e-006 -1.00949e-006 -3.17051e-007 7.95139e-016 -4.89507e-015 -1.59028e-015 2.63561e-007 -2.28255e-006 1.01823e-007 1.27305e-006 -1.00949e-006 -3.17051e-007 0.014984 -9.54777e-005 1.6685e-006 2.63465e-007 -2.28253e-006 1.02121e-007 1.27305e-006 -1.00949e-006 -3.17051e-007 0.0189984 -0.0011921 -6.28122e-005 -8.64185e-007 -1.93443e-006 -7.36868e-007 1.27305e-006 -1.00949e-006 -3.17051e-007 0.0122571 -0.00324544 -0.000684644 -8.64749e-007 -1.93457e-006 -7.37018e-007 1.27305e-006 -1.00949e-006 -3.17051e-007 7.95139e-016 -4.89507e-015 -1.59028e-015 2.63561e-007 -2.28255e-006 1.01823e-007 -28.5182 -47.9842 -35.6279 176.672 47.994 177.565 -7.41706 13.6023 -3.37264 -2.24186e-006 -1.71775e-007 1.82402e-007 16.3546 3.04463 1.06717 -1.99524 6.62661 0.847485 9.12119 13.3979 0.59994 -3.70881e-006 4.22655e-007 4.50565e-007 
-0.183272 1.85941 6.31281 -180 -89.9981 -180 -0.0442943 8.31293 -0.0654162 -0.080165 16.6259 -0.126286 -0.080165 16.626 -0.126286 1.97843e-006 17.9989 -1.2766e-006 -0.00230679 2.19765 14.9968 0.603947 0.432978 8.60715 -77.1298 0.631611 30.2922 27.1554 10.1123 -69.924 -7.08971 23.5991 0.217609 -2.02759e-006 2.53946e-006 8.51082e-007 -2.28353e-006 2.55935e-007 7.33162e-007 -2.28353e-006 2.55935e-007 7.33162e-007 -2.02759e-006 2.53946e-006 8.51082e-007 -0.0145949 -8.84689e-005 -1.05448e-006 -3.33619e-006 -1.08723e-007 -1.00888e-007 -2.02759e-006 2.53946e-006 8.51082e-007 -0.0187354 -0.00117511 5.56617e-005 -2.2835e-006 2.55817e-007 7.33227e-007 -2.02759e-006 2.53946e-006 8.51082e-007 -0.0122903 -0.00325013 0.000682994 -2.28349e-006 2.55873e-007 7.33253e-007 -2.02759e-006 2.53946e-006 8.51082e-007 -2.28353e-006 2.55935e-007 7.33162e-007 -2.28353e-006 2.55935e-007 7.33162e-007 -0.607421 0.433242 -8.61064 77.1126 0.63402 -30.2949 -27.2536 9.81996 70.6104 7.08676 23.5989 -0.220564 -2.28116e-006 -2.63398e-007 7.40436e-007 -1.53568e-006 3.29004e-006 2.19292e-007 -2.54456e-006 2.01776e-006 6.39818e-007 -2.28116e-006 -2.63398e-007 7.40436e-007 0.0149946 -8.68213e-005 -6.7463e-006 -2.54445e-006 2.01784e-006 6.39556e-007 -2.28116e-006 -2.63398e-007 7.40436e-007 0.0189862 -0.00119066 -5.73224e-005 -1.4129e-006 1.68981e-006 1.47386e-006 -2.28116e-006 -2.63398e-007 7.40436e-007 0.0122792 -0.00325002 -0.00067243 -2.54446e-006 2.01779e-006 6.39669e-007 -2.28116e-006 -2.63398e-007 7.40436e-007 -1.53568e-006 3.29004e-006 2.19292e-007 -2.54456e-006 2.01776e-006 6.39818e-007 -28.444 -48.0115 -35.5506 176.672 47.9935 177.564 -7.41718 13.6018 -3.37291 -7.40473e-015 -3.97569e-016 -1.59028e-015 16.3547 3.04444 1.06717 -1.99525 6.62703 0.847508 9.12116 13.3976 0.599963 -2.09011e-006 4.52976e-007 1.38298e-006 
-0.183314 1.85943 6.31282 -180 -89.9981 -180 -0.0434781 8.26505 -0.0641463 -0.0787409 16.5301 -0.123843 -0.0787407 16.5302 -0.123843 5.94705e-007 17.9984 -4.9044e-007 -0.00229153 1.9722 14.9968 0.603947 0.43297 8.60715 -77.1298 0.631617 30.2922 26.9559 10.158 -69.6717 -7.08973 23.5991 0.217604 -1.78906e-015 -6.65929e-015 1.11319e-014 1.98785e-016 -9.39258e-015 1.27222e-014 3.97569e-016 -5.46658e-015 9.54166e-015 -1.78906e-015 -6.65929e-015 1.11319e-014 -0.0146177 -8.418e-005 -5.5531e-006 1.98785e-015 3.42904e-015 -3.18055e-015 -1.78906e-015 -6.65929e-015 1.11319e-014 -0.0187377 -0.00117383 5.44553e-005 1.98785e-016 2.93207e-015 -1.59028e-015 -1.78906e-015 -6.65929e-015 1.11319e-014 -0.0122535 -0.00324554 0.000682696 1.98785e-015 7.05686e-015 -1.59028e-015 -1.78906e-015 -6.65929e-015 1.11319e-014 1.98785e-016 -9.39258e-015 1.27222e-014 3.97569e-016 -5.46658e-015 9.54166e-015 -0.60742 0.43325 -8.61063 77.1125 0.634052 -30.2949 -27.0584 9.85743 70.3816 7.08676 23.5989 -0.22056 -3.55125e-006 7.45059e-007 1.06771e-006 -2.54298e-006 2.01655e-006 6.45525e-007 -1.00827e-006 -1.27149e-006 4.22182e-007 -3.55125e-006 7.45059e-007 1.06771e-006 0.0149962 -9.04325e-005 4.40234e-006 -1.00832e-006 -1.27143e-006 4.22349e-007 -3.55125e-006 7.45059e-007 1.06771e-006 0.0190001 -0.00119491 -5.84108e-005 -1.00832e-006 -1.27142e-006 4.22403e-007 -3.55125e-006 7.45059e-007 1.06771e-006 0.0122772 -0.00325152 -0.000677541 -1.00829e-006 -1.27144e-006 4.22349e-007 -3.55125e-006 7.45059e-007 1.06771e-006 -2.54298e-006 2.01655e-006 6.45525e-007 -1.00827e-006 -1.27149e-006 4.22182e-007 -28.3693 -48.0391 -35.473 176.671 47.9929 177.564 -7.4173 13.6013 -3.37317 -1.64436e-006 -5.55588e-007 1.3032e-008 16.3547 3.04425 1.06718 -1.99525 6.6274 0.84751 9.12112 13.3975 0.599981 -2.09011e-006 4.52976e-007 1.38298e-006 
